<svg width="603" height="603" viewBox="0 0 603 603" fill="none" xmlns="http://www.w3.org/2000/svg">
<path d="M231.137 433.293C189.037 489.909 217.224 553.664 236.58 578.464C154.922 543.985 133.146 502.249 142.22 440.551C149.478 391.193 210.571 340.142 240.21 320.785L361.79 239.127C371.468 233.078 398.083 210.819 427.117 170.171C456.151 129.523 441.634 56.4537 430.746 25C517.849 162.912 445.263 248.2 381.751 300.824C369.654 309.898 337.111 334.577 303.722 360.707C270.333 386.838 241.419 419.985 231.137 433.293Z" fill="#005179"/>
<path d="M298.278 264.532L236.58 304.454L115 155.654H207.546L298.278 264.532Z" fill="#005179"/>
<path d="M358.162 340.746L487 494.99H392.64L338.201 427.848C334.571 424.219 327.313 416.235 305.537 413.331C283.762 410.428 249.284 441.156 234.767 456.883C240.573 430.752 319.449 368.57 358.162 340.746Z" fill="#005179"/>
</svg>
